<?xml version="1.0" encoding="UTF-8"?>
<svg id="Layer_2" data-name="Layer 2" xmlns="http://www.w3.org/2000/svg" viewBox="0 0 953.39 1069.26">
  <g id="Layer_1-2" data-name="Layer 1">
    <path d="M510.66,192.77l23.66,3.43c-7.32,25.39,7.84,49.58,6.96,76.01-.67,20.2-15.17,41.54-16.24,54.57-.54,6.59,7.82,26.68,8.84,37.04,5.41,54.75-24.91,99.8-40.13,149.9,77.99,10.95,95.74,113.93,47.41,167.26,21.85,23.28,48.04,45.63,67.37,71.04,4.9,6.44,11.2,12.97,10.21,21.85-8.84,9.13-75.42-76.01-86.13-81l-28.68,23.58c-5.79-18.91,14.34-31.69,24.18-48.41,20.54-34.88,30.14-75.42,5.61-111.48-6.37-9.36-36.35-34.44-46.78-27.82l-43.83,93.11c13.9-95.81,89.23-183.46,70.89-283.77-19.01,7.91-41.09,10.36-60.76,3.36-.26,11.3-5.99,28.35-18.8,30.46-25.08,4.11-40.79-20.54,1.52-13.89,15.88-63.41-81.36-129.05.14-173.85,5.32-2.92,10.95-4.93,17.1-4.89-6.35-13.32-26.55-.1-39.03.14-21.79.42-51.75-9.2-70.22-20.91-5.45-3.46-20.1-19.41-21.53-19.71-10.86-2.26-35.73,4.61-52.94,2.94-21.42-2.08-40.11-11.72-59.53-19.82,25.44,46.78,25.05,102.86,6.77,151.97,18.75-4.68,42.29-4.11,54-20.24,5.5,39.87,28.48,97.2,78.51,90.56,58.39-7.75,29.95-84.34,22.84-121l-104.67,22c16.82-17.42,37.01-23.55,60.1-27.74,12.13-2.2,40.97-8.1,49.65-.96,9.75,8.02,21.38,69.2,21.61,83.1.84,49.92-43.48,69.2-86.76,52.98-29.44-11.03-42.52-45.81-44.63-75.33l-47.29,10.19c-.95.91,15.76,23.5,1.73,23.58-18.03-51.39-78.41-46.47-54.08,13.52,7.26,17.9,23.53,24.8,35.43,38.92.67,8.39-1.09,4.05-5.88,2.49-26.45-8.61-77.95-55.11-93.53-78.77-50.96-77.36-29.13-189.74,75.79-195.76l-30.39-33.73,33.73,20.25c-4.46-11.51,12.36-66.67,21.99-67.5,8.11-.7,1.8,8.85,1.05,11.08-7.53,22.33-16.36,41.62-12.84,66.55C273.32,32.92,379.59-22.62,479.51,9.43c83.41,26.75,80.45,125.56,31.15,183.34ZM450.46,327.34c81.63,26.8,83.92-61.97,63.77-116.15-21.13-4.14-89.88-3.01-99.91,18.87-6.08,13.26,16.44,41.41,22.58,55.08,6.09,13.55,10.66,27.63,13.56,42.2Z"/>
    <path d="M898.63,118.93c33.89,59.03,49.61,129.03,54.76,196.72l-33.8,9.06c4.57,41.35-26.95,77.29-35.67,114.67-3.57,15.29-3.09,26.64,15.29,27.13-6.89,20.27-11.1,58.31,20.22,54.03l5.13-20.28c18.01,3.16,1.46,27.02-7.52,29.72-18.16,5.46-28.9-8.04-31.07-24.96-1.25-9.74,2.71-23.04,2.01-26.97-.66-3.67-8.14-4.85-10.57-8.39-16-23.21,27.42-97.69,29.72-128.76.7-9.52-2.04-20.25-10.1-26.27-18.27-5.18-46.03,51.79-36.71,67.36,10.77-9.1,16.95-21.51,24.39-33.09,3.73-5.81,5.55-8.13,4.14.74-2.05,12.9-29.16,80.18-36.3,92.15-4.1,6.87-8.47,14.61-17.74,9.7-15.77-11.03,6.35-74.54,3.56-93.13l-13.26.24c-16.78,81.19-17.34,151.95,5.64,232.07,7.46,26.02,18.52,52.36,38.01,71.74,25.87-70.03,91.55-144.62,62.47-222.89-4.52-12.18-16.25-23.24-18.54-35.53-2.77-14.83,17.19,15.54,18.73,18.45,15.01,28.32,19.15,64.51,14.79,96.11-4.48,32.5-36.23,82.2-46.63,115.23,19.81,7.26,53.66,63.18,18.24,66.08-53.57,4.39-99.93-93.68-103.11-138.77l-14.43,68.28-19.28,53.31c2.84-43.61,17.88-85.95,20.2-130.08,1.89-35.98-6.16-71.85-3.48-108.21,1.93-26.16,11.77-52.79,13.62-79.25l-43.87,10.11c-.54-70.98-19.38-142.8-54.04-204.42l185.24-51.88ZM913.19,317.35c7.69,4.61,27.2-7.21,26.67-21.32-2.02-52.83-25.18-118.25-47.26-165.89l-162.34,42.42c28.36,59.31,49.94,122.47,50.7,189.14,21.16-9.73,59.65-13.16,78.43-23.71,7.49-4.21,13.36-27.05,29.48-32.23,22.39-7.21,19.78,8.86,24.32,11.59ZM852.79,394.86c-9.42-6.55.25-33.16-.95-43.28l-6.02,5.77-7.44,85.43c6.25,7.17,22.62-38.59,23.22-42.68,1.29-8.73-4.22-2.05-8.81-5.25Z"/>
    <path d="M140.19,518.3c-43.53,41.7-7.97,104.31,33.47,131.44,42.84,28.05,82.86,32.23,131.56,40.74,4.2.73,16.36.63,16.23,5.68-46.98,9.54-92.59-4.55-136.47-19.8l-32.41,55.33c10.06,4.88,47.32-10.65,50.41.43-12.18,65.54-7.35,132.42,6.98,197.17l-10.18-2.24c-19.42-63.47-20.06-125.52-6.72-190.3-54.68,10.48-110.34,10.86-165.51,3.35-8.29,59.96-17.35,121.92-2.58,181.64,52.91,14.37,107.94,2.04,161.34,2.48-37.96,23.02-86.13,11.5-128.5,16.77l-43.47,107.82-13.81,2.11c-5.43-5.23,31.78-95.87,37.19-109.8,1.68-11.35-19.48.27-25.52-8.3-15.28-67.72-10.09-138.26,1.86-206.24l109.65,10.06c5.17.08,7.31-3.33,10.13-6.8,3.4-4.17,32.47-55.28,31.9-58.57-83.93-50.48-94.38-179.3,23.83-189.78,6.16-.55,8.8-3.74,13.57,3.56-19.25,12.9-45.66,16.69-62.96,33.26Z"/>
    <path d="M341.74,1054.26c26.89-29.7,44.71-66.52,69.54-97.66,4.91-6.16,51.54-57.94,58.82-50.94l-23.55,28.81c-2.05,5.09,17.52,14.8,20.24,13.56l111.37-104.89c-52.74-29.8-92.77-71.07-123.25-123.25l-131.98,94.52,15.49,33.78c3.61,2.56,47.97-36.38,60.73-28.71-51.35,31.38-89.63,70.19-124.36,118.89-20.6,28.88-36.59,60.71-58.03,88.9,21.3-67.93,67.35-125.52,118.11-173.99-8.36-8.83-27.48-34.82-21.98-45.63l150.4-104.71c15.42,46.49,56.45,87.98,97,114.21,6.53,4.23,36.3,15.94,34.79,22.56l-121.68,121.87c-7.83,3.82-28.72-13.22-35.4-18.71-5.69.2-56.54,81.64-65.94,92.78-7.76,9.19-17.08,21.1-30.33,18.62Z"/>
    <path d="M834.97,919.14l-172.51,5.3c-10.21-7.33-28.12-181.62-16.3-204.24l167.09-.57,21.73,199.51ZM821.48,905.64l-18.49-175.86-143.7,3.55c-.7,60.08,3.62,119.91,13.57,179.1l148.63-6.79Z"/>
    <path d="M737.03,1067.79c-9.28-7.98,40.53-30.3,43.61-32.37,105.1-70.81,140.36-193.36,148.78-314.06.42-6.05-.89-10.93,5.23-14.97,6.16,4.05,4.77,8.94,5.22,14.98,6.89,92.56-42.29,240.4-113.43,302.42-11.7,10.2-77.77,54.01-89.41,44Z"/>
    <path d="M172.84,523.87c-1.3-6.58,3.05-8.12,7.74-10.81,86.49-49.61,228.74,71.56,256.55,150.23,3.11,8.8,2.14,25.37-5.77,15.92-7.04-8.4-12.87-25.22-19.26-34.81-50.77-76.25-140.36-159-239.25-120.54Z"/>
    <path d="M368.78,878.57c7.37,10.5,41.47-12.58,53.33-15.87,11.62-3.22,22.22-5.66,34.48-4.34,1.78,11.7-18.25,9.67-26.35,12.47-23.85,8.25-44.6,19.41-63.65,36-7.85,6.84-13.41,24.89-28.2,22.44-5.85-53.91,41.07-78.52,72.63-111.46,12.18,18.93-52.46,46.16-42.23,60.75ZM345.15,919.15l26.94-28.71c-17.11-23.2-22.52,14.72-26.94,28.71Z"/>
    <path d="M480.24,892.08l-59.9,33.04-41.42,34.56c-13.07-15.05,79.86-76.72,96.35-77.27l4.98,9.67Z"/>
    <path d="M345.11,189.46c10.8,15.52-53.26,35.52-57.39,21.81-5.44-18.04,53.17-27.87,57.39-21.81Z"/>
    <path d="M364.6,254.42c8.51,8.47,9.42,38.49,4.13,49.86-18.19-1.22-17.65-29.37-6.86-38.86-16.58-18.27-31.45.13-47.12,8.47-6.77-7.34,33.86-35.37,49.85-19.47Z"/>
    <path d="M456.6,875.27c-16.18,14.1-36.92,18.69-55.17,30.95-15.5,10.41-28.11,25.2-42.77,36.59,1.79-14.82,24.05-34.53,36.02-43.34,16.19-11.9,41.68-25.92,61.92-24.2Z"/>
    <path d="M453.19,405.64c-6.89,29.93-53.49,31.12-52.35.02,18.71,18.21,33.58,16.61,52.35-.02Z"/>
    <path d="M499.55,237.74c12.66,10.66,16.68,41.55,2.62,53.02-19.48-3.14-2.05-38.4-8.26-42.35-16.68-5.97-29.06,5.33-40.65,15.33-7.19-9.19,29.47-40.19,46.29-26.01Z"/>
  </g>
</svg>